<?xml version="1.0" encoding="utf-8"?>
<svg version="1.1" xmlns:xlink="http://www.w3.org/1999/xlink" width="12px" height="12px" viewBox="16 278  12 12" xmlns="http://www.w3.org/2000/svg">
  <path d="M 22 278  C 25.36 278  28 280.64  28 284  C 28 287.36  25.36 290  22 290  C 18.64 290  16 287.36  16 284  C 16 280.64  18.64 278  22 278  Z " fill-rule="nonzero" fill="#ffffff" stroke="none" />
  <path d="M 22 278.5  C 25.08 278.5  27.5 280.92  27.5 284  C 27.5 287.08  25.08 289.5  22 289.5  C 18.92 289.5  16.5 287.08  16.5 284  C 16.5 280.92  18.92 278.5  22 278.5  Z " stroke-width="1" stroke="#797979" fill="none" />
  <path d="M 22 287  C 20.32 287  19 285.68  19 284  C 19 282.32  20.32 281  22 281  C 23.68 281  25 282.32  25 284  C 25 285.68  23.68 287  22 287  " fill-rule="nonzero" fill="#797979" stroke="none" />
</svg>