<?xml version="1.0" encoding="utf-8"?>
<svg version="1.1" xmlns:xlink="http://www.w3.org/1999/xlink" width="13px" height="21px" xmlns="http://www.w3.org/2000/svg">
  <g transform="matrix(1 0 0 1 -19 -136 )">
    <path d="M 7.45638020833333 19.826953125  C 7.72157118055556 19.569921875  7.85416666666667 19.2609375  7.85416666666667 18.9  C 7.85416666666667 18.5390625  7.72157118055556 18.230078125  7.45638020833333 17.973046875  C 7.19118923611111 17.716015625  6.87239583333333 17.5875  6.5 17.5875  C 6.12760416666667 17.5875  5.80881076388889 17.716015625  5.54361979166667 17.973046875  C 5.27842881944444 18.230078125  5.14583333333333 18.5390625  5.14583333333333 18.9  C 5.14583333333333 19.2609375  5.27842881944444 19.569921875  5.54361979166667 19.826953125  C 5.80881076388889 20.083984375  6.12760416666667 20.2125  6.5 20.2125  C 6.87239583333333 20.2125  7.19118923611111 20.083984375  7.45638020833333 19.826953125  Z M 11.2141927083333 16.644140625  C 11.3213975694444 16.540234375  11.375 16.4171875  11.375 16.275  L 11.375 4.725  C 11.375 4.5828125  11.3213975694444 4.459765625  11.2141927083333 4.355859375  C 11.1069878472222 4.251953125  10.9800347222222 4.2  10.8333333333333 4.2  L 2.16666666666667 4.2  C 2.01996527777778 4.2  1.89301215277778 4.251953125  1.78580729166667 4.355859375  C 1.67860243055556 4.459765625  1.625 4.5828125  1.625 4.725  L 1.625 16.275  C 1.625 16.4171875  1.67860243055556 16.540234375  1.78580729166667 16.644140625  C 1.89301215277778 16.748046875  2.01996527777778 16.8  2.16666666666667 16.8  L 10.8333333333333 16.8  C 10.9800347222222 16.8  11.1069878472222 16.748046875  11.2141927083333 16.644140625  Z M 7.85416666666667 2.625  C 8.03472222222222 2.625  8.125 2.5375  8.125 2.3625  C 8.125 2.1875  8.03472222222222 2.1  7.85416666666667 2.1  L 5.14583333333333 2.1  C 4.96527777777778 2.1  4.875 2.1875  4.875 2.3625  C 4.875 2.5375  4.96527777777778 2.625  5.14583333333333 2.625  L 7.85416666666667 2.625  Z M 12.3567708333333 0.6234375  C 12.7855902777778 1.0390625  13 1.53125  13 2.1  L 13 18.9  C 13 19.46875  12.7855902777778 19.9609375  12.3567708333333 20.3765625  C 11.9279513888889 20.7921875  11.4201388888889 21  10.8333333333333 21  L 2.16666666666667 21  C 1.57986111111111 21  1.07204861111111 20.7921875  0.643229166666667 20.3765625  C 0.214409722222222 19.9609375  0 19.46875  0 18.9  L 0 2.1  C 0 1.53125  0.214409722222222 1.0390625  0.643229166666667 0.6234375  C 1.07204861111111 0.207812499999998  1.57986111111111 0  2.16666666666667 0  L 10.8333333333333 0  C 11.4201388888889 0  11.9279513888889 0.207812499999998  12.3567708333333 0.6234375  Z " fill-rule="nonzero" fill="#000000" stroke="none" transform="matrix(1 0 0 1 19 136 )" />
  </g>
</svg>