<?xml version="1.0" encoding="utf-8"?>
<svg version="1.1" xmlns:xlink="http://www.w3.org/1999/xlink" width="24px" height="21px" xmlns="http://www.w3.org/2000/svg">
  <g transform="matrix(1 0 0 1 -357 -10 )">
    <path d="M 3.30803571428571 17.623046875  C 3.38839285714286 17.705078125  3.42857142857143 17.8098958333333  3.42857142857143 17.9375  L 3.42857142857143 20.5625  C 3.42857142857143 20.6901041666667  3.38839285714286 20.794921875  3.30803571428571 20.876953125  C 3.22767857142857 20.958984375  3.125 21  3 21  L 0.428571428571429 21  C 0.303571428571429 21  0.200892857142857 20.958984375  0.120535714285714 20.876953125  C 0.0401785714285714 20.794921875  0 20.6901041666667  0 20.5625  L 0 17.9375  C 0 17.8098958333333  0.0401785714285714 17.705078125  0.120535714285714 17.623046875  C 0.200892857142857 17.541015625  0.303571428571429 17.5  0.428571428571429 17.5  L 3 17.5  C 3.125 17.5  3.22767857142857 17.541015625  3.30803571428571 17.623046875  Z M 8.45089285714286 15.873046875  C 8.53125 15.955078125  8.57142857142857 16.0598958333333  8.57142857142857 16.1875  L 8.57142857142857 20.5625  C 8.57142857142857 20.6901041666667  8.53125 20.794921875  8.45089285714286 20.876953125  C 8.37053571428572 20.958984375  8.26785714285714 21  8.14285714285714 21  L 5.57142857142857 21  C 5.44642857142857 21  5.34375 20.958984375  5.26339285714286 20.876953125  C 5.18303571428571 20.794921875  5.14285714285714 20.6901041666667  5.14285714285714 20.5625  L 5.14285714285714 16.1875  C 5.14285714285714 16.0598958333333  5.18303571428571 15.955078125  5.26339285714286 15.873046875  C 5.34375 15.791015625  5.44642857142857 15.75  5.57142857142857 15.75  L 8.14285714285714 15.75  C 8.26785714285714 15.75  8.37053571428572 15.791015625  8.45089285714286 15.873046875  Z M 13.59375 12.373046875  C 13.6741071428571 12.455078125  13.7142857142857 12.5598958333333  13.7142857142857 12.6875  L 13.7142857142857 20.5625  C 13.7142857142857 20.6901041666667  13.6741071428571 20.794921875  13.59375 20.876953125  C 13.5133928571429 20.958984375  13.4107142857143 21  13.2857142857143 21  L 10.7142857142857 21  C 10.5892857142857 21  10.4866071428571 20.958984375  10.40625 20.876953125  C 10.3258928571429 20.794921875  10.2857142857143 20.6901041666667  10.2857142857143 20.5625  L 10.2857142857143 12.6875  C 10.2857142857143 12.5598958333333  10.3258928571429 12.455078125  10.40625 12.373046875  C 10.4866071428571 12.291015625  10.5892857142857 12.25  10.7142857142857 12.25  L 13.2857142857143 12.25  C 13.4107142857143 12.25  13.5133928571429 12.291015625  13.59375 12.373046875  Z M 18.7366071428571 7.123046875  C 18.8169642857143 7.205078125  18.8571428571429 7.30989583333333  18.8571428571429 7.4375  L 18.8571428571429 20.5625  C 18.8571428571429 20.6901041666667  18.8169642857143 20.794921875  18.7366071428571 20.876953125  C 18.65625 20.958984375  18.5535714285714 21  18.4285714285714 21  L 15.8571428571429 21  C 15.7321428571429 21  15.6294642857143 20.958984375  15.5491071428571 20.876953125  C 15.46875 20.794921875  15.4285714285714 20.6901041666667  15 20.5625  L 15 7.4375  C 15.4285714285714 7.30989583333333  15.46875 7.205078125  15.5491071428571 7.123046875  C 15.6294642857143 7.041015625  15.7321428571429 7  15.8571428571429 7  L 18.4285714285714 7  C 18.5535714285714 7  18.65625 7.041015625  18.7366071428571 7.123046875  Z M 23.8794642857143 0.123046875  C 23.9598214285714 0.205078125  24 0.30989583333333  24 0.437500000000001  L 24 20.5625  C 24 20.6901041666667  23.9598214285714 20.794921875  23.8794642857143 20.876953125  C 23.7991071428571 20.958984375  23.6964285714286 21  23.5714285714286 21  L 21 21  C 20.875 21  20.7723214285714 20.958984375  20.6919642857143 20.876953125  C 20.6116071428571 20.794921875  20.5714285714286 20.6901041666667  20.5714285714286 20.5625  L 20.5714285714286 0.437500000000001  C 20.5714285714286 0.30989583333333  20.6116071428571 0.205078125  20.6919642857143 0.123046875  C 20.7723214285714 0.041015625  20.875 0  21 0  L 23.5714285714286 0  C 23.6964285714286 0  23.7991071428571 0.041015625  23.8794642857143 0.123046875  Z " fill-rule="nonzero" fill="#009587" stroke="none" transform="matrix(1 0 0 1 357 10 )" />
  </g>
</svg>